HIERARCHY
ROOT Hips
{
	OFFSET 0.00000 0.00000 0.00000
	CHANNELS 6 Xposition Yposition Zposition Zrotation Yrotation Xrotation 
	JOINT RightUpLegDummy
	{
		OFFSET 0 0 0
		CHANNELS 3 Zrotation Yrotation Xrotation
		JOINT RightUpLeg
		{
			OFFSET -3.52197 -3.41223 0.04002
			CHANNELS 3 Zrotation Yrotation Xrotation
			JOINT RightLeg
			{
				OFFSET 0.00006 -17.42390 1.60435
				CHANNELS 3 Zrotation Yrotation Xrotation
				JOINT RightFoot
				{
					OFFSET 0.06154 -16.50078 -1.63900
					CHANNELS 3 Zrotation Yrotation Xrotation
					JOINT RightToes
					{
						OFFSET 0.00298 -1.73825 3.34613
						CHANNELS 3 Zrotation Yrotation Xrotation
						End Site
						{
							OFFSET 0.00480 -0.05416 3.85043
						}
					}
				}
			}
		}
	}
	JOINT SpineDummy
	{
		OFFSET 0 0 0
		CHANNELS 3 Zrotation Yrotation Xrotation
		JOINT Spine
		{
			OFFSET 0.00000 4.68130 0.00000
			CHANNELS 3 Zrotation Yrotation Xrotation
			JOINT Spine1
			{
				OFFSET -0.00000 10.10138 0.05002
				CHANNELS 3 Zrotation Yrotation Xrotation
				JOINT HEadDummy
				{
					OFFSET 0 0 0
					CHANNELS 3 Zrotation Yrotation Xrotation
					JOINT Head
					{
						OFFSET -0.00000 3.43865 0.00438
						CHANNELS 3 Zrotation Yrotation Xrotation
						End Site
						{
							OFFSET -0.11417 5.02924 0.98962
						}
					}
				}
				JOINT LeftShoulder1Dummy
				{
					OFFSET 0 0 0
					CHANNELS 3 Zrotation Yrotation Xrotation
					JOINT LeftShoulder1
					{
						OFFSET 3.53937 -0.14262 -0.08662
						CHANNELS 3 Zrotation Yrotation Xrotation
						JOINT LeftArm
						{
							OFFSET 4.04833 -0.00133 0.12681
							CHANNELS 3 Zrotation Yrotation Xrotation
							JOINT LeftForeArm
							{
								OFFSET 10.33880 -0.01036 -0.55515
								CHANNELS 3 Zrotation Yrotation Xrotation
								JOINT LeftHand
								{
									OFFSET 8.69677 0.07543 0.40060
									CHANNELS 3 Zrotation Yrotation Xrotation
									End Site
									{
										OFFSET 5.28377 -0.21905 0.59205
									}
								}
							}
						}
					}
				}
				JOINT RightShoulderDummy
				{
					OFFSET 0 0 0
					CHANNELS 3 Zrotation Yrotation Xrotation
					JOINT RightShoulder
					{
						OFFSET -3.53937 -0.14262 -0.08660
						CHANNELS 3 Zrotation Yrotation Xrotation
						JOINT RightArm
						{
							OFFSET -4.04833 -0.00133 0.12683
							CHANNELS 3 Zrotation Yrotation Xrotation
							JOINT RightForeArm
							{
								OFFSET -10.37987 -0.01039 -0.55511
								CHANNELS 3 Zrotation Yrotation Xrotation
								JOINT RightHand
								{
									OFFSET -8.67398 0.07538 0.40058
									CHANNELS 3 Zrotation Yrotation Xrotation
									End Site
									{
										OFFSET -5.24810 -0.21916 0.59204
									}
								}
							}
						}
					}
				}
			}
		}
	}
	JOINT LeftUpLegDummy
	{
		OFFSET 0 0 0
		CHANNELS 3 Zrotation Yrotation Xrotation
		JOINT LeftUpLeg
		{
			OFFSET 3.52197 -3.41223 0.04002
			CHANNELS 3 Zrotation Yrotation Xrotation
			JOINT LeftLeg
			{
				OFFSET -0.00012 -17.42399 1.60337
				CHANNELS 3 Zrotation Yrotation Xrotation
				JOINT LeftFoot
				{
					OFFSET -0.09972 -16.50070 -1.63802
					CHANNELS 3 Zrotation Yrotation Xrotation
					JOINT LeftToes
					{
						OFFSET -0.01575 -1.73823 3.34611
						CHANNELS 3 Zrotation Yrotation Xrotation
						End Site
						{
							OFFSET 0.03150 -0.01868 3.85031
						}
					}
				}
			}
		}
	}
}
MOTION
Frames: 15
Frame Time: 0.033333
-70.1381 40.8997 -4.3325 16.6688 76.8036 17.7808 0.0000 0.0000 0.0000 -4.6304 -7.0628 2.3218 -4.2224 -14.5954 9.8674 8.4196 -0.1234 -10.1810 -0.0000 -0.0000 0.0000 0.0000 0.0000 0.0000 -7.9268 -1.7116 -15.8168 5.0767 -2.6397 23.6190 0.0000 0.0000 0.0000 -0.7705 10.0817 1.4259 0.0000 0.0000 0.0000 -19.4233 -2.8501 1.6470 -60.8442 -17.2278 -4.1849 -13.7337 -7.2068 26.2865 14.8000 -3.6767 -1.1283 0.0000 0.0000 0.0000 20.1259 2.2832 1.5438 56.9476 14.0955 -10.6129 11.6205 4.4448 37.8336 -5.9360 1.8217 -0.3526 0.0000 0.0000 0.0000 -6.7290 -2.0204 -1.5976 -1.8340 24.1043 -1.0302 6.2369 -0.5578 -1.0258 -0.0000 0.0000 -0.0000
-70.1490 40.9040 -4.3167 16.3904 76.8823 17.5209 0.0000 0.0000 0.0000 -4.4623 -6.9248 2.3792 -4.2767 -14.8041 9.7129 8.4319 -0.1309 -10.0750 -0.0000 -0.0000 0.0000 0.0000 0.0000 0.0000 -8.0293 -1.7684 -15.7685 5.3039 -2.7781 23.5453 0.0000 0.0000 0.0000 -0.9272 10.2927 1.6614 0.0000 0.0000 0.0000 -19.6023 -2.8437 1.6559 -60.6587 -16.8037 -5.3113 -13.8791 -6.5576 27.3476 15.0485 -3.5289 -1.1299 0.0000 0.0000 0.0000 19.9897 2.3382 1.5449 56.8636 14.0725 -10.7045 11.5655 4.5397 37.9363 -5.6346 1.8219 -0.3339 0.0000 0.0000 0.0000 -6.6228 -1.9598 -1.6716 -1.7804 24.0181 -0.9155 6.2480 -0.5585 -1.0336 -0.0000 0.0000 -0.0000
-70.1804 40.9137 -4.2894 16.0015 77.0364 17.1702 0.0000 0.0000 0.0000 -4.2563 -6.8516 2.4790 -4.2045 -15.0485 9.4007 8.3228 -0.1423 -9.8925 -0.0000 -0.0000 0.0000 0.0000 0.0000 0.0000 -8.3029 -1.8790 -15.5235 5.7988 -3.0594 23.2793 0.0000 0.0000 0.0000 -1.2513 10.7572 2.0032 0.0000 0.0000 0.0000 -19.9791 -2.7952 1.6654 -60.2131 -16.0165 -7.6462 -14.1048 -5.1664 29.6528 15.2927 -3.3772 -1.1300 0.0000 0.0000 0.0000 19.6832 2.3782 1.5392 56.8492 14.1251 -10.6134 11.5256 4.8082 37.6392 -5.5194 1.7084 -0.3222 0.0000 0.0000 0.0000 -6.4516 -1.8968 -1.8212 -1.6821 23.8432 -0.7358 6.2346 -0.5585 -1.0063 -0.0000 0.0000 -0.0000
-70.2126 40.9265 -4.2712 15.6439 77.0763 16.8844 0.0000 0.0000 0.0000 -4.2328 -7.0224 2.5680 -3.8414 -14.9642 8.9943 8.0657 -0.1499 -9.7297 -0.0000 -0.0000 0.0000 0.0000 0.0000 0.0000 -8.2741 -1.9264 -15.3284 5.9112 -3.1575 23.0761 0.0000 0.0000 0.0000 -1.4712 11.1563 2.0920 0.0000 0.0000 0.0000 -20.2221 -2.7573 1.6697 -59.7344 -15.1635 -10.1166 -14.2305 -3.5995 32.0189 15.2638 -3.2556 -1.1126 0.0000 0.0000 0.0000 19.4755 2.2678 1.4991 56.9400 14.3376 -10.1347 11.5493 5.2354 36.9034 -5.6943 1.6241 -0.3295 0.0000 0.0000 0.0000 -6.3308 -1.8915 -1.9491 -1.6263 23.7870 -0.7094 6.1862 -0.5600 -0.9063 -0.0000 0.0000 -0.0000
-70.2278 40.9390 -4.2683 15.3525 76.9339 16.7468 0.0000 0.0000 0.0000 -4.3391 -7.2555 2.5516 -3.4037 -14.6328 8.5969 7.8124 -0.1547 -9.5997 -0.0000 -0.0000 0.0000 0.0000 0.0000 0.0000 -7.7115 -1.8662 -15.4473 5.3200 -2.9201 23.1212 0.0000 0.0000 0.0000 -1.4495 11.2451 1.8563 0.0000 0.0000 0.0000 -20.1472 -2.7791 1.6711 -59.3900 -14.3541 -12.3483 -14.1934 -2.1399 33.9834 15.1012 -3.1388 -1.0859 0.0000 0.0000 0.0000 19.5486 2.0877 1.4562 57.0146 14.5568 -8.9515 11.6509 5.9699 35.6620 -5.8561 1.6810 -0.3417 0.0000 0.0000 0.0000 -6.3005 -1.9547 -2.0510 -1.6437 23.9608 -0.9068 6.1424 -0.5650 -0.7557 -0.0000 0.0000 -0.0000
-70.2329 40.9496 -4.2702 15.1632 76.7823 16.7887 0.0000 0.0000 0.0000 -4.3700 -7.3106 2.4173 -3.1962 -14.4553 8.2737 7.6870 -0.1621 -9.4533 -0.0000 -0.0000 0.0000 0.0000 0.0000 0.0000 -6.9534 -1.7809 -15.7329 4.4216 -2.5478 23.2193 0.0000 0.0000 0.0000 -1.2932 11.1117 1.5343 0.0000 0.0000 0.0000 -19.8852 -2.8645 1.6782 -59.1363 -13.5599 -14.6330 -13.9198 -0.7030 35.8885 15.0291 -3.1055 -1.0765 0.0000 0.0000 0.0000 19.8292 2.0230 1.4539 57.0145 14.6418 -6.9102 11.7618 7.0361 33.8839 -5.7832 1.8486 -0.3442 0.0000 0.0000 0.0000 -6.3071 -2.0540 -2.1813 -1.6979 24.1996 -1.2005 6.1398 -0.5737 -0.6073 -0.0000 0.0000 -0.0000
-70.2427 40.9586 -4.2691 15.0656 76.7810 16.8943 0.0000 0.0000 0.0000 -4.3034 -7.2610 2.3259 -3.1401 -14.5401 7.9615 7.6272 -0.1715 -9.2879 -0.0000 -0.0000 0.0000 0.0000 0.0000 0.0000 -6.3501 -1.7506 -15.8357 3.6892 -2.2827 23.1234 0.0000 0.0000 0.0000 -1.1649 10.9729 1.2985 0.0000 0.0000 0.0000 -19.6868 -2.9382 1.6857 -58.8586 -12.8305 -16.7742 -13.3722 0.7358 37.5867 15.0678 -3.1830 -1.0889 0.0000 0.0000 0.0000 20.0492 2.0900 1.4829 57.1022 14.7014 -4.5890 11.7680 8.1082 32.1514 -5.4898 2.0744 -0.3347 0.0000 0.0000 0.0000 -6.2829 -2.1215 -2.3092 -1.7614 24.2740 -1.4363 6.1564 -0.5817 -0.5015 -0.0000 0.0000 -0.0000
-70.2572 40.9646 -4.2699 15.0542 76.8449 16.9568 0.0000 0.0000 0.0000 -4.3223 -7.3577 2.4067 -2.9468 -14.5671 7.6236 7.5112 -0.1752 -9.1950 -0.0000 -0.0000 0.0000 0.0000 0.0000 0.0000 -5.9027 -1.7164 -15.6597 3.2203 -2.1122 22.8878 0.0000 0.0000 0.0000 -1.1372 10.7981 1.0302 0.0000 0.0000 0.0000 -19.7203 -2.8729 1.6705 -58.5053 -12.3843 -18.2824 -12.7069 2.1087 38.5878 15.1152 -3.2014 -1.0947 0.0000 0.0000 0.0000 19.9382 2.1484 1.4926 57.5000 14.8506 -2.6240 11.6430 8.9896 30.8501 -5.1732 2.2651 -0.3213 0.0000 0.0000 0.0000 -6.2405 -2.1140 -2.3435 -1.8543 24.1950 -1.5788 6.1588 -0.5848 -0.4544 -0.0000 0.0000 -0.0000
-70.2690 40.9636 -4.2771 15.2343 76.8064 17.1153 0.0000 0.0000 0.0000 -4.4967 -7.5915 2.5242 -2.6725 -14.3544 7.4125 7.3717 -0.1690 -9.2548 -0.0000 -0.0000 0.0000 0.0000 0.0000 0.0000 -5.5910 -1.5545 -15.3979 3.0016 -1.8920 22.6830 0.0000 0.0000 0.0000 -1.3049 10.5941 0.5966 0.0000 0.0000 0.0000 -20.0014 -2.6877 1.6383 -58.0612 -12.3500 -19.4879 -12.1053 3.4687 39.2861 15.1185 -3.0017 -1.0703 0.0000 0.0000 0.0000 19.5156 2.1261 1.4645 58.1341 14.9456 -0.4297 11.3639 10.0315 29.0009 -5.0678 2.2703 -0.3145 0.0000 0.0000 0.0000 -6.2509 -2.0698 -2.2944 -2.0012 24.1498 -1.6885 6.1825 -0.5876 -0.4544 -0.0000 0.0000 -0.0000
-70.2815 40.9554 -4.2858 15.7237 76.7103 17.6136 0.0000 0.0000 0.0000 -4.6572 -7.6913 2.4414 -2.6716 -14.1852 7.4913 7.3575 -0.1587 -9.4188 -0.0000 -0.0000 0.0000 0.0000 0.0000 0.0000 -5.5017 -1.2823 -15.2262 2.9909 -1.5982 22.5112 0.0000 0.0000 0.0000 -1.7305 10.6476 0.1630 0.0000 0.0000 0.0000 -20.3313 -2.6231 1.6402 -57.5911 -12.5334 -20.4846 -11.5655 4.5927 39.8686 15.0749 -2.6717 -1.0265 0.0000 0.0000 0.0000 19.1847 2.0846 1.4365 58.6139 14.8423 2.7795 10.9037 11.4568 25.8152 -5.2264 2.1024 -0.3188 0.0000 0.0000 0.0000 -6.3376 -2.0603 -2.2895 -2.1770 24.1853 -1.8037 6.2712 -0.5938 -0.4648 -0.0000 0.0000 -0.0000
-70.3019 40.9464 -4.2907 16.4104 76.7904 18.3952 0.0000 0.0000 0.0000 -4.6376 -7.5382 2.1804 -3.0110 -14.4088 7.7405 7.5043 -0.1531 -9.5491 -0.0000 -0.0000 0.0000 0.0000 0.0000 0.0000 -5.4992 -1.0821 -15.1612 2.9101 -1.3393 22.3381 0.0000 0.0000 0.0000 -1.7949 10.1138 -0.0448 0.0000 0.0000 0.0000 -20.4152 -2.8104 1.6951 -57.2068 -12.6119 -21.2543 -11.1279 5.0884 40.2178 14.9790 -2.4118 -0.9880 0.0000 0.0000 0.0000 19.2371 2.0895 1.4405 58.7654 14.7252 6.2337 10.4072 12.7705 22.5321 -5.4469 1.9877 -0.3286 0.0000 0.0000 0.0000 -6.4262 -2.0871 -2.4181 -2.3053 24.1188 -1.8569 6.3495 -0.5987 -0.4597 -0.0000 0.0000 -0.0000
-70.3273 40.9425 -4.2925 17.0208 77.1869 19.1281 0.0000 0.0000 0.0000 -4.4658 -7.3080 1.9895 -3.3647 -15.0133 7.8840 7.6688 -0.1544 -9.5649 -0.0000 -0.0000 0.0000 0.0000 0.0000 0.0000 -5.3023 -1.0837 -15.1620 2.5342 -1.2192 22.2888 0.0000 0.0000 0.0000 -1.6172 9.8906 -0.2107 0.0000 0.0000 0.0000 -20.2072 -3.0206 1.7389 -56.9851 -12.5445 -21.5233 -10.9922 4.7680 39.9387 14.8487 -2.2983 -0.9654 0.0000 0.0000 0.0000 19.3722 2.1276 1.4574 58.9326 14.8497 8.6179 10.0999 13.5016 20.6292 -5.5293 1.9999 -0.3343 0.0000 0.0000 0.0000 -6.4249 -2.0844 -2.6479 -2.3201 23.7711 -1.7344 6.2910 -0.5944 -0.4523 -0.0000 0.0000 -0.0000
-70.3468 40.9423 -4.2920 17.4939 77.7937 19.6914 0.0000 0.0000 0.0000 -4.2653 -7.1719 1.9686 -3.5226 -15.7463 7.8675 7.7110 -0.1525 -9.5129 -0.0000 -0.0000 0.0000 0.0000 0.0000 0.0000 -4.9436 -1.1954 -15.2108 2.0684 -1.2152 22.4431 0.0000 0.0000 0.0000 -1.3554 9.6906 -0.5199 0.0000 0.0000 0.0000 -19.9171 -2.9924 1.7138 -56.9222 -12.5507 -21.1038 -11.2635 3.8627 38.9881 14.7448 -2.2959 -0.9582 0.0000 0.0000 0.0000 19.2072 2.1502 1.4545 59.3829 15.0893 10.3009 9.8481 13.9983 19.2545 -5.4924 1.9356 -0.3295 0.0000 0.0000 0.0000 -6.3462 -2.0432 -2.8819 -2.2460 23.1977 -1.4754 6.1283 -0.5833 -0.4548 -0.0000 0.0000 -0.0000
-70.3511 40.9411 -4.2907 18.1147 78.3714 20.3809 0.0000 0.0000 0.0000 -4.1348 -7.1240 1.9736 -3.6130 -16.3807 7.8865 7.6466 -0.1447 -9.4871 -0.0000 -0.0000 0.0000 0.0000 0.0000 0.0000 -4.7292 -1.2240 -15.2718 1.8202 -1.1812 22.5897 0.0000 0.0000 0.0000 -1.1442 9.2444 -0.9214 0.0000 0.0000 0.0000 -19.6545 -2.8322 1.6560 -56.9749 -12.6957 -20.2097 -11.7916 2.7023 37.8054 14.7354 -2.3973 -0.9697 0.0000 0.0000 0.0000 19.0141 2.1436 1.4427 59.7431 15.0898 12.4272 9.3864 14.7622 16.9966 -5.4593 1.7212 -0.3190 0.0000 0.0000 0.0000 -6.3094 -2.0546 -3.0301 -2.1822 22.6551 -1.3117 6.0379 -0.5768 -0.4395 -0.0000 0.0000 -0.0000
-70.3376 40.9396 -4.2897 19.0669 78.7668 21.3989 0.0000 0.0000 0.0000 -4.1227 -7.1249 1.9174 -3.7482 -16.7936 8.0219 7.5821 -0.1377 -9.5189 -0.0000 -0.0000 0.0000 0.0000 0.0000 0.0000 -4.7644 -1.1195 -15.2860 1.7648 -1.0315 22.5026 0.0000 0.0000 0.0000 -0.9395 8.6059 -1.2339 0.0000 0.0000 0.0000 -19.3895 -2.7402 1.6166 -57.0670 -12.8233 -19.1714 -12.3930 1.3758 36.7192 14.7891 -2.5928 -0.9969 0.0000 0.0000 0.0000 19.2615 2.1496 1.4573 59.5743 14.8207 14.4704 8.9104 15.4976 14.8712 -5.5345 1.6174 -0.3196 0.0000 0.0000 0.0000 -6.3910 -2.1747 -3.0479 -2.1876 22.3391 -1.3952 6.0874 -0.5794 -0.3859 -0.0000 0.0000 -0.0000
